<svg width="36" height="36" viewBox="0 0 36 36" fill="none" xmlns="http://www.w3.org/2000/svg">
<g id="iconograf&#195;&#173;a">
<mask id="mask0_1016_4590" style="mask-type:alpha" maskUnits="userSpaceOnUse" x="0" y="0" width="36" height="36">
<rect id="Bounding box" width="36" height="36" fill="#D9D9D9"/>
</mask>
<g mask="url(#mask0_1016_4590)">
<path id="favorite" d="M18 30.4871C17.65 30.4871 17.2938 30.4246 16.9313 30.2996C16.5688 30.1746 16.25 29.9746 15.975 29.6996L13.3875 27.3371C10.7375 24.9121 8.34375 22.5059 6.20625 20.1184C4.06875 17.7309 3 15.0996 3 12.2246C3 9.87461 3.7875 7.91211 5.3625 6.33711C6.9375 4.76211 8.9 3.97461 11.25 3.97461C12.575 3.97461 13.825 4.25586 15 4.81836C16.175 5.38086 17.175 6.14961 18 7.12461C18.825 6.14961 19.825 5.38086 21 4.81836C22.175 4.25586 23.425 3.97461 24.75 3.97461C27.1 3.97461 29.0625 4.76211 30.6375 6.33711C32.2125 7.91211 33 9.87461 33 12.2246C33 15.0996 31.9375 17.7371 29.8125 20.1371C27.6875 22.5371 25.275 24.9496 22.575 27.3746L20.025 29.6996C19.75 29.9746 19.4313 30.1746 19.0688 30.2996C18.7063 30.4246 18.35 30.4871 18 30.4871Z" fill="white"/>
</g>
</g>
</svg>
