<svg width="36" height="36" viewBox="0 0 36 36" fill="none" xmlns="http://www.w3.org/2000/svg">
<g id="iconograf&#195;&#173;a">
<mask id="mask0_1016_4584" style="mask-type:alpha" maskUnits="userSpaceOnUse" x="0" y="0" width="36" height="36">
<rect id="Bounding box" width="36" height="36" fill="#D9D9D9"/>
</mask>
<g mask="url(#mask0_1016_4584)">
<path id="checkroom" d="M9 27H27L18 20.25L9 27ZM15.9375 10.35C15.8125 10.625 15.6312 10.85 15.3937 11.025C15.1562 11.2 14.875 11.2875 14.55 11.2875C14.125 11.2875 13.7688 11.1437 13.4813 10.8562C13.1938 10.5687 13.05 10.2125 13.05 9.7875C13.05 9.6625 13.0563 9.55625 13.0688 9.46875C13.0813 9.38125 13.1125 9.2875 13.1625 9.1875C13.5875 8.2375 14.2375 7.46875 15.1125 6.88125C15.9875 6.29375 16.95 6 18 6C19.45 6 20.6875 6.50625 21.7125 7.51875C22.7375 8.53125 23.25 9.7625 23.25 11.2125C23.25 12.3875 22.9062 13.4375 22.2188 14.3625C21.5312 15.2875 20.625 15.925 19.5 16.275V17.625L32.4 27.3C32.6 27.425 32.75 27.5938 32.85 27.8063C32.95 28.0188 33 28.25 33 28.5C33 28.925 32.8562 29.2812 32.5687 29.5688C32.2812 29.8563 31.925 30 31.5 30H4.5C4.075 30 3.71875 29.8563 3.43125 29.5688C3.14375 29.2812 3 28.925 3 28.5C3 28.25 3.05 28.0188 3.15 27.8063C3.25 27.5938 3.4 27.425 3.6 27.3L16.5 17.625V15C16.5 14.575 16.65 14.2188 16.95 13.9312C17.25 13.6437 17.6125 13.5 18.0375 13.5C18.6625 13.5 19.1875 13.275 19.6125 12.825C20.0375 12.375 20.25 11.8375 20.25 11.2125C20.25 10.5875 20.0312 10.0625 19.5938 9.6375C19.1562 9.2125 18.625 9 18 9C17.55 9 17.1375 9.11875 16.7625 9.35625C16.3875 9.59375 16.1125 9.925 15.9375 10.35Z" fill="white"/>
</g>
</g>
</svg>
