<svg width="117" height="49" viewBox="0 0 117 49" fill="none" xmlns="http://www.w3.org/2000/svg">
<path d="M115.778 24.3145H0.501953V24.9475H115.778V24.3145Z" fill="#0D0D0D"/>
<path d="M116.279 23.8301H0.0371094V25.4127H116.279V23.8301Z" fill="#0D0D0D"/>
<path d="M0.985352 18.3002V0.96582H12.9867V4.35449H4.44084V7.35216H9.40114V10.7408H4.44084V14.9301H13.3582V18.3188H0.985352V18.3002Z" fill="#0D0D0D"/>
<path d="M13.8409 18.7839H0.501953V0.5H13.4693V4.85686H4.92349V6.90496H9.88379V11.2246H4.92349V14.4457H13.8409V18.7839ZM1.468 17.8344H12.8934V15.3953H3.97602V10.2564H8.93632V7.85454H3.95744V3.90729H12.5033V1.46819H1.468V17.8344Z" fill="#0D0D0D"/>
<path d="M40.7228 6.19783L38.1033 7.76183C37.8432 7.91078 37.546 8.07835 37.2301 8.26454C36.9143 8.45073 36.5799 8.63693 36.2641 8.8045C35.9483 8.97207 35.651 9.13964 35.3723 9.28859C35.0937 9.43754 34.8893 9.54926 34.7221 9.64236C34.8893 9.73545 35.1123 9.82854 35.3723 9.9775C35.651 10.1264 35.9297 10.2754 36.2455 10.443C36.5613 10.6105 36.8772 10.7967 37.2116 10.9829C37.546 11.1691 37.8432 11.3553 38.1033 11.5229L40.7228 13.0869V17.2203L31.8797 11.7277L23.4268 16.9783V12.8448L25.6561 11.5415C25.9162 11.3925 26.2134 11.225 26.5293 11.0388C26.8451 10.8526 27.1795 10.6664 27.4953 10.4988C27.8111 10.3313 28.1084 10.1637 28.3871 10.0147C28.6657 9.86578 28.8701 9.75407 29.0373 9.66097C28.8701 9.5865 28.6471 9.45616 28.3871 9.30721C28.1084 9.15826 27.8297 8.99069 27.5139 8.82311C27.1981 8.65554 26.8822 8.46935 26.5664 8.28316C26.2506 8.09697 25.9534 7.9294 25.6747 7.76183L23.4453 6.45849V2.32506L31.8983 7.59426L40.7414 2.08301V6.19783H40.7228Z" fill="#0D0D0D"/>
<path d="M41.2054 1.20801V6.47721L38.3444 8.17154C38.0658 8.32049 37.7871 8.48807 37.4713 8.67426C37.1369 8.86045 36.8211 9.04664 36.4867 9.23283C36.2266 9.38178 35.985 9.51212 35.7435 9.62383C35.9665 9.75416 36.208 9.8845 36.4681 10.0148C36.7839 10.1824 37.0997 10.3686 37.4341 10.5548C37.7685 10.741 38.0658 10.9272 38.3444 11.0947L41.1869 12.7891V18.0583L31.8608 12.2677L22.9434 17.8162V12.547L25.3956 11.0947C25.6557 10.9458 25.953 10.7782 26.2688 10.592C26.6032 10.4058 26.919 10.2196 27.2534 10.0335C27.5135 9.8845 27.7736 9.75416 28.0151 9.62383C27.7736 9.4935 27.5321 9.36316 27.272 9.21421C26.9562 9.04664 26.6404 8.86045 26.3245 8.67426C26.0087 8.48807 25.6929 8.3205 25.4142 8.15292L22.9619 6.70064V1.43144L31.8793 6.99854L41.2054 1.20801ZM40.2394 5.93725V2.93958L31.8793 8.17154L23.9094 3.20025V6.19792L25.8972 7.37092C26.1759 7.53849 26.4732 7.70607 26.789 7.89226C27.1048 8.07845 27.4206 8.24602 27.7365 8.41359C28.0523 8.58116 28.331 8.74873 28.6096 8.89769C28.8697 9.04664 29.0926 9.15835 29.2413 9.23283L30.0959 9.66107L29.2413 10.0893C29.0741 10.1638 28.8697 10.2755 28.6096 10.4245C28.331 10.5734 28.0337 10.741 27.7179 10.9085C27.4021 11.0761 27.0862 11.2623 26.7704 11.4485C26.4546 11.6347 26.1573 11.8023 25.8787 11.9512L23.8908 13.1242V16.1219L31.8608 11.1692L40.2208 16.3639V13.3663L37.8428 11.9512C37.5827 11.7836 37.2855 11.6161 36.9511 11.4299C36.6167 11.2437 36.3009 11.0575 36.0036 10.8899C35.6878 10.7224 35.4091 10.5734 35.149 10.4245C34.889 10.2755 34.666 10.1824 34.4988 10.0893L33.6442 9.66107L34.4988 9.23283C34.666 9.15835 34.8704 9.04664 35.1305 8.89769C35.4091 8.74873 35.7064 8.58116 36.0222 8.41359C36.338 8.24602 36.6539 8.05983 36.9697 7.87364C37.2855 7.68745 37.5827 7.51987 37.8614 7.37092L40.2394 5.93725Z" fill="#0D0D0D"/>
<path d="M58.7254 4.39173V18.3002H55.2699V4.39173H50.3096V0.96582H63.7042V4.39173H58.7254Z" fill="#0D0D0D"/>
<path d="M59.208 18.7839H54.805V4.87548H49.8447V0.5H64.1869V4.87548H59.2266V18.7839H59.208ZM55.7339 17.8344H58.2419V3.92591H63.2022V1.46819H50.7736V3.92591H55.7339V17.8344Z" fill="#0D0D0D"/>
<path d="M84.7899 18.3002L81.7059 12.0628H78.2319V18.3002H74.7764V0.96582H82.8206C83.6195 0.96582 84.3997 1.07754 85.1243 1.30096C85.8488 1.52439 86.4804 1.85954 87.0192 2.32501C87.558 2.79049 87.9853 3.36768 88.3011 4.03797C88.6169 4.72687 88.7655 5.52749 88.7655 6.45845C88.7655 7.76178 88.4869 8.82307 87.9295 9.66093C87.3722 10.4988 86.5548 11.1318 85.4401 11.5601L88.7469 18.3002H84.7899ZM85.1986 6.55154C85.1986 5.75092 84.9756 5.19235 84.5483 4.85721C84.1211 4.52206 83.508 4.35449 82.7277 4.35449H78.2133V8.80445H82.7277C84.3811 8.80445 85.1986 8.05969 85.1986 6.55154Z" fill="#0D0D0D"/>
<path d="M89.5268 18.7839H84.4922L81.4083 12.5465H78.6959V18.7839H74.293V0.5H82.8202C83.6748 0.5 84.4922 0.611713 85.2539 0.853761C86.0342 1.09581 86.7402 1.46819 87.3161 1.97091C87.9106 2.47362 88.375 3.10667 88.728 3.85143C89.0624 4.5962 89.2482 5.47129 89.2482 6.45811C89.2482 7.85454 88.9509 9.00892 88.3379 9.92126C87.8177 10.7033 87.0746 11.3363 86.1085 11.7832L89.5268 18.7839ZM85.0867 17.8344H88.0035L84.8081 11.3177L85.2911 11.1315C86.2943 10.7405 87.056 10.1633 87.5576 9.41854C88.0592 8.67377 88.3007 7.68697 88.3007 6.47673C88.3007 5.62025 88.1521 4.87548 87.8734 4.26105C87.5948 3.64662 87.2046 3.12529 86.703 2.69705C86.22 2.28743 85.6255 1.97091 84.9753 1.7661C84.3065 1.56129 83.5819 1.44957 82.8202 1.44957H75.2404V17.8157H77.7485V11.5784H82.0028L85.0867 17.8344ZM82.7273 9.2882H77.7299V3.87005H82.7273C83.6005 3.87005 84.325 4.07486 84.8452 4.48448C85.4026 4.91272 85.6812 5.62025 85.6812 6.5512C85.6812 8.30139 84.6409 9.2882 82.7273 9.2882ZM78.6959 8.32001H82.7459C84.1207 8.32001 84.7338 7.78006 84.7338 6.5512C84.7338 5.91815 84.5851 5.47129 84.2693 5.22924C83.9163 4.96858 83.4147 4.81963 82.7459 4.81963H78.6959V8.32001Z" fill="#0D0D0D"/>
<path d="M111.282 18.3002L109.925 14.446H103.609L102.253 18.3002H98.5557L105.169 0.96582H108.513L115.09 18.3002H111.282ZM107.64 8.02245C107.454 7.50112 107.287 7.01702 107.139 6.53292C106.99 6.04883 106.86 5.63921 106.786 5.32268C106.711 5.65783 106.581 6.06745 106.433 6.53292C106.284 7.01702 106.117 7.51974 105.931 8.02245L104.816 11.1877H108.774L107.64 8.02245Z" fill="#0D0D0D"/>
<path d="M115.777 18.7839H110.947L109.591 14.9298H103.943L102.587 18.7839H97.8496L104.835 0.5H108.848L115.777 18.7839ZM111.634 17.8344H114.403L108.198 1.46819H105.485L99.2244 17.8344H101.9L103.256 13.9802H110.26L111.634 17.8344ZM109.424 11.6528H104.129L105.467 7.85454C105.652 7.35182 105.82 6.84911 105.968 6.36501C106.117 5.89953 106.228 5.50853 106.321 5.17339H107.25C107.324 5.48991 107.454 5.89953 107.603 6.36501C107.752 6.84911 107.919 7.3332 108.105 7.85454L109.424 11.6528ZM105.467 10.7033H108.067L107.176 8.18968C107.027 7.78006 106.897 7.37044 106.767 6.97944C106.637 7.37044 106.507 7.78006 106.358 8.18968L105.467 10.7033Z" fill="#0D0D0D"/>
<path d="M8.89919 34.1076V48.016H5.4437V34.1076H0.483398V30.6816H13.8781V34.1076H8.89919Z" fill="#0D0D0D"/>
<path d="M9.38184 48.4998H4.9603V34.5727H0V30.1973H14.3421V34.5727H9.38184V48.4998ZM5.92635 47.5316H8.43437V33.6232H13.3947V31.1655H0.947473V33.6232H5.90777V47.5316H5.92635Z" fill="#0D0D0D"/>
<path d="M36.5618 48.016L35.2057 44.1619H28.8892L27.533 48.016H23.7988L30.4126 30.6816H33.7752L40.3517 48.016H36.5618ZM32.902 37.7196C32.7162 37.1983 32.549 36.7142 32.4004 36.2301C32.2518 35.746 32.1217 35.3364 32.0474 35.0199C31.9545 35.355 31.8431 35.7646 31.6944 36.2301C31.5458 36.7142 31.3786 37.2169 31.1928 37.7196L30.0782 40.8849H34.0167L32.902 37.7196Z" fill="#0D0D0D"/>
<path d="M41.0576 48.4998H36.2273L34.8711 44.6456H29.2234L27.8672 48.4998H23.1299L30.1152 30.2158H34.128L41.0576 48.4998ZM36.8961 47.5316H39.6642L33.4592 31.1654H30.7468L24.4861 47.5316H27.1613L28.5175 43.6774H35.5213L36.8961 47.5316ZM34.6853 41.3686H29.3906L30.7282 37.5704C30.914 37.0676 31.0812 36.5649 31.2298 36.0808C31.3785 35.6154 31.4899 35.2244 31.5828 34.8892H32.5117C32.586 35.2057 32.7161 35.6154 32.8647 36.0808C33.0133 36.5649 33.1805 37.049 33.3663 37.5704L34.6853 41.3686ZM30.7282 40.4005H33.3292L32.4374 37.8869C32.2888 37.4773 32.1587 37.0676 32.0287 36.6766C31.8987 37.0676 31.7686 37.4773 31.62 37.8869L30.7282 40.4005Z" fill="#0D0D0D"/>
<path d="M50.9229 48.016V30.6816H54.3783V44.5901H63.0542V47.9974H50.9229V48.016Z" fill="#0D0D0D"/>
<path d="M63.5368 48.4998H50.458V30.2158H54.861V44.1243H63.5368V48.4998ZM51.4055 47.5316H62.5894V45.0738H53.9135V31.1654H51.4055V47.5316Z" fill="#0D0D0D"/>
<path d="M75.835 48.016V30.6816H79.2905V44.5901H87.9663V47.9974H75.835V48.016Z" fill="#0D0D0D"/>
<path d="M88.449 48.4998H75.3701V30.2158H79.7917V44.1243H88.449V48.4998ZM76.3176 47.5316H87.4829V45.0738H78.807V31.1654H76.299V47.5316H76.3176Z" fill="#0D0D0D"/>
<path d="M100.637 48.016V30.6816H112.638V34.0703H104.092V37.068H109.053V40.438H104.092V44.6273H113.01V48.016H100.637Z" fill="#0D0D0D"/>
<path d="M113.474 48.4998H100.153V30.2158H113.121V34.5727H104.575V36.6208H109.535V40.9404H104.575V44.1615H113.492V48.4998H113.474ZM101.101 47.5316H112.526V45.0925H103.609V39.9536H108.569V37.5517H103.609V33.6045H112.155V31.1654H101.101V47.5316Z" fill="#0D0D0D"/>
</svg>
