<svg width="36" height="36" viewBox="0 0 36 36" fill="none" xmlns="http://www.w3.org/2000/svg">
<g id="iconograf&#195;&#173;a">
<mask id="mask0_1016_4578" style="mask-type:alpha" maskUnits="userSpaceOnUse" x="0" y="0" width="36" height="36">
<rect id="Bounding box" width="36" height="36" fill="#D9D9D9"/>
</mask>
<g mask="url(#mask0_1016_4578)">
<path id="straighten" d="M15.8785 32.8488C15.2952 33.4322 14.5881 33.7238 13.7572 33.7238C12.9264 33.7238 12.2193 33.4322 11.6359 32.8488L3.15062 24.3635C2.56725 23.7801 2.27557 23.073 2.27557 22.2422C2.27557 21.4113 2.56725 20.7042 3.15062 20.1209L6.3326 16.9389L11.6359 22.2422C11.9364 22.5427 12.29 22.693 12.6966 22.693C13.1031 22.693 13.4567 22.5427 13.7572 22.2422C14.0577 21.9417 14.208 21.5881 14.208 21.1815C14.208 20.7749 14.0577 20.4214 13.7572 20.1209L8.45392 14.8176L10.5752 12.6962L15.8785 17.9995C16.1791 18.3001 16.5326 18.4503 16.9392 18.4503C17.3458 18.4503 17.6993 18.3001 17.9999 17.9995C18.3004 17.699 18.4506 17.3455 18.4506 16.9389C18.4506 16.5323 18.3004 16.1787 17.9999 15.8782L12.6966 10.5749L14.8179 8.45361L20.1212 13.7569C20.4217 14.0574 20.7753 14.2077 21.1818 14.2077C21.5884 14.2077 21.942 14.0574 22.2425 13.7569C22.543 13.4564 22.6933 13.1028 22.6933 12.6962C22.6933 12.2897 22.543 11.9361 22.2425 11.6356L16.9392 6.33229L20.1212 3.15031C20.7045 2.56694 21.4116 2.27526 22.2425 2.27526C23.0733 2.27526 23.7805 2.56694 24.3638 3.15031L32.8491 11.6356C33.4325 12.219 33.7241 12.9261 33.7241 13.7569C33.7241 14.5878 33.4325 15.2949 32.8491 15.8782L15.8785 32.8488Z" fill="white"/>
</g>
</g>
</svg>
